{"title":"Lingaa (2014) Hindi - Untouched  720p WEBHD x264 AVC 2CH ESUBS -","uid":12022009,"size":3908299922,"categoryP":"video","categoryS":"movies","magnet":"?xt=urn:btih:5d7a159a30fcda6d1cf9d496329a3bc3b469f105&amp;dn=Lingaa+%282014%29+Hindi+-+Untouched++720p+WEBHD+x264+AVC+2CH+ESUBS+-&amp;tr=udp%3A%2F%2Ftracker.openbittorrent.com%3A80&amp;tr=udp%3A%2F%2Fopen.demonii.com%3A1337&amp;tr=udp%3A%2F%2Ftracker.coppersurfer.tk%3A6969&amp;tr=udp%3A%2F%2Fexodus.desync.com%3A6969","seeders":0,"leechers":2,"uploader":"SS132203","files":2,"time":1434413842,"description":"Lingaa (2014) Hindi - Untouched  720p WEBHD x264 AVC 2CH ESUBS - Team Telly Exclusive \n &lt;a href=&quot;\nhttp://imgsparrow.co/image/hT&quot; rel=&quot;nofollow&quot; target=&quot;_NEW&quot;&gt;\nhttp://imgsparrow.co/image/hT&lt;/a&gt;\n &lt;a href=&quot;\nhttp://imgsparrow.co/image/A8&quot; rel=&quot;nofollow&quot; target=&quot;_NEW&quot;&gt;\nhttp://imgsparrow.co/image/A8&lt;/a&gt;\n\nInfo : - \n\nAll Credit Goes To Team Telly (Thank Them Not Me)\n\nFormat : MPEG-TS\nFile size : 3.64 GiB\nDuration : 2h 28mn\nOverall bit rate : 3 513 Kbps\n\nVideo\nID : 256 (0x100)\nMenu ID : 1 (0x1)\nFormat : AVC\nFormat/Info : Advanced Video Codec\nFormat profile : &lt;a class=&quot;__cf_email__&quot; href=&quot;/cdn-cgi/l/email-protection&quot; data-cfemail=&quot;aae2c3cdc2eae699849b&quot;&gt;[email&amp;#160;protected]&lt;/a&gt;&lt;script data-cfhash='f9e31' type=&quot;text/javascript&quot;&gt;\n/* &lt;![CDATA[ */!function(){try{var t=&quot;currentScript&quot;in document?document.currentScript:function(){for(var t=document.getElementsByTagName(&quot;script&quot;),e=t.length;e--;)if(t[e].getAttribute(&quot;data-cfhash&quot;))return t[e]}();if(t&amp;&amp;t.previousSibling){var e,r,n,i,c=t.previousSibling,a=c.getAttribute(&quot;data-cfemail&quot;);if(a){for(e=&quot;&quot;,r=parseInt(a.substr(0,2),16),n=2;a.length-n;n+=2)i=parseInt(a.substr(n,2),16)^r,e+=String.fromCharCode(i);e=document.createTextNode(e),c.parentNode.replaceChild(e,c)}t.parentNode.removeChild(t);}}catch(u){}}()/* ]]&gt; */&lt;/script&gt;\nFormat settings, CABAC : Yes\nFormat settings, ReFrames : 4 frames\nFormat settings, GOP : M=4, N=30\nCodec ID : 27\nDuration : 2h 28mn\nBit rate : 3 014 Kbps\nWidth : 1 280 pixels\nHeight : 720 pixels\nDisplay aspect ratio : 16:9\nFrame rate mode : Variable\nColor space : YUV\nChroma subsampling : 4:2:0\nBit depth : 8 bits\nScan type : Progressive\nStream size : 3.26 GiB (90%)\nWriting library : x264 core 133 r2 a3ac64b\n\nAudio\nID : 257 (0x101)\nMenu ID : 1 (0x1)\nFormat : AAC\nFormat/Info : Advanced Audio Codec\nFormat version : Version 4\nFormat profile : LC\nMuxing mode : ADTS\nCodec ID : 15\nDuration : 2h 28mn\nBit rate mode : Constant\nBit rate : 192 Kbps\nChannel(s) : 2 channels\nChannel positions : Front: L R\nSampling rate : 48.0 KHz\nCompression mode : Lossy\nDelay relative to video : -42ms\nStream size : 204 MiB (5%)\n\nScreens : - \n &lt;a href=&quot;\nhttp://imgsparrow.co/image/A9&quot; rel=&quot;nofollow&quot; target=&quot;_NEW&quot;&gt;\nhttp://imgsparrow.co/image/A9&lt;/a&gt; &lt;a href=&quot;\nhttp://imgsparrow.co/image/AL&quot; rel=&quot;nofollow&quot; target=&quot;_NEW&quot;&gt;\nhttp://imgsparrow.co/image/AL&lt;/a&gt; &lt;a href=&quot;\nhttp://imgsparrow.co/image/AN&quot; rel=&quot;nofollow&quot; target=&quot;_NEW&quot;&gt;\nhttp://imgsparrow.co/image/AN&lt;/a&gt; &lt;a href=&quot;\nhttp://imgsparrow.co/image/At&quot; rel=&quot;nofollow&quot; target=&quot;_NEW&quot;&gt;\nhttp://imgsparrow.co/image/At&lt;/a&gt; &lt;a href=&quot;\nhttp://imgsparrow.co/image/AE&quot; rel=&quot;nofollow&quot; target=&quot;_NEW&quot;&gt;\nhttp://imgsparrow.co/image/AE&lt;/a&gt; &lt;a href=&quot;\nhttp://imgsparrow.co/image/AJ&quot; rel=&quot;nofollow&quot; target=&quot;_NEW&quot;&gt;\nhttp://imgsparrow.co/image/AJ&lt;/a&gt; &lt;a href=&quot;\nhttp://imgsparrow.co/image/AU&quot; rel=&quot;nofollow&quot; target=&quot;_NEW&quot;&gt;\nhttp://imgsparrow.co/image/AU&lt;/a&gt; &lt;a href=&quot;\nhttp://imgsparrow.co/image/Aus&quot; rel=&quot;nofollow&quot; target=&quot;_NEW&quot;&gt;\nhttp://imgsparrow.co/image/Aus&lt;/a&gt;\n &lt;a href=&quot;\nhttp://imgsparrow.co/image/N2&quot; rel=&quot;nofollow&quot; target=&quot;_NEW&quot;&gt;\nhttp://imgsparrow.co/image/N2&lt;/a&gt;","torrent":{"xt":"urn:btih:5d7a159a30fcda6d1cf9d496329a3bc3b469f105","amp;dn":"Lingaa+%282014%29+Hindi+-+Untouched++720p+WEBHD+x264+AVC+2CH+ESUBS+-","amp;tr":["udp%3A%2F%2Ftracker.openbittorrent.com%3A80","udp%3A%2F%2Fopen.demonii.com%3A1337","udp%3A%2F%2Ftracker.coppersurfer.tk%3A6969","udp%3A%2F%2Fexodus.desync.com%3A6969"],"infoHash":"5d7a159a30fcda6d1cf9d496329a3bc3b469f105","infoHashBuffer":{"type":"Buffer","data":[93,122,21,154,48,252,218,109,28,249,212,150,50,154,59,195,180,105,241,5]},"announce":[],"urlList":[]}}